<svg width="1513" height="500" viewBox="0 0 1513 500" fill="none" xmlns="http://www.w3.org/2000/svg">
<path fill-rule="evenodd" clip-rule="evenodd" d="M1162.74 429.257C1152.01 415.44 1143.15 400.028 1136.14 383.02C1129.97 367.247 1125.8 350.437 1123.62 332.591H898.761C901.063 346.83 905.032 359.897 910.666 371.791C920.193 391.552 933.427 407.079 950.365 418.371C967.304 429.31 986.712 434.78 1008.59 434.78C1030.82 434.78 1050.41 429.134 1067.35 417.842C1083.38 407.152 1096.09 392.668 1105.49 374.388C1106.47 377.299 1107.52 380.176 1108.63 383.02C1118.4 406.748 1131.79 427.371 1148.81 444.888C1131.53 462.155 1110.9 475.547 1086.93 485.066C1063.29 494.594 1037.35 499.357 1009.12 499.357C980.889 499.357 954.776 494.594 930.78 485.066C907.137 475.538 886.494 462.129 868.849 444.837C851.558 427.194 837.972 406.373 828.092 382.377C818.564 358.028 813.8 331.209 813.8 301.92C813.8 263.103 822.092 229.226 838.678 200.291C855.263 171.001 878.2 148.24 907.49 132.008C937.132 115.775 970.832 107.659 1008.59 107.659C1047.05 107.659 1080.93 115.775 1110.22 132.008C1131.08 143.569 1148.72 158.443 1163.14 176.628C1177.46 158.735 1194.93 144.075 1215.54 132.65C1245.18 116.418 1278.88 108.301 1316.64 108.301C1355.11 108.301 1388.98 116.418 1418.27 132.65C1447.56 148.883 1470.5 171.643 1487.09 200.933C1504.02 230.222 1512.49 264.275 1512.49 303.092C1512.49 332.028 1507.55 358.671 1497.67 383.02C1488.14 407.016 1474.56 427.836 1456.91 445.48C1439.62 462.771 1418.98 476.18 1394.98 485.708C1371.34 495.236 1345.4 500 1317.17 500C1288.94 500 1262.83 495.236 1238.83 485.708C1215.19 476.18 1194.55 462.771 1176.9 445.48C1171.87 440.341 1167.14 434.933 1162.74 429.257ZM1118.41 265.304H899.649C901.941 253.6 905.437 242.868 910.137 233.108C919.664 213.7 932.897 198.703 949.836 188.116C966.774 177.529 986.359 172.236 1008.59 172.236C1031.17 172.236 1050.94 177.529 1067.87 188.116C1084.81 198.703 1098.05 213.7 1107.57 233.108C1112.42 242.974 1116.03 253.706 1118.41 265.304ZM1204.43 300.424L1204.43 301.181L1204.43 301.391L1204.43 301.708V301.878L1204.43 302.033L1204.43 302.815C1204.43 303.213 1204.43 303.61 1204.43 304.006C1204.66 330.005 1209.42 352.814 1218.72 372.433C1228.25 392.194 1241.48 407.722 1258.42 419.013C1275.36 429.953 1294.76 435.423 1316.64 435.423C1338.87 435.423 1358.46 429.777 1375.4 418.484C1392.34 407.192 1405.57 391.665 1415.1 371.904C1424.98 351.789 1429.92 328.5 1429.92 302.033C1429.92 275.92 1425.15 253.159 1415.63 233.751C1406.1 214.342 1392.87 199.345 1375.93 188.759C1358.99 178.172 1339.23 172.879 1316.64 172.879C1294.41 172.879 1274.83 178.172 1257.89 188.759C1240.95 199.345 1227.72 214.342 1218.19 233.751C1209.2 252.419 1204.61 274.644 1204.43 300.424Z" fill="black"/>
<path d="M1219.02 57.1668V0H1413.28V57.1668H1219.02Z" fill="black"/>
<path d="M0.000730108 499.417L0 107.659H181.028C209.259 107.659 233.431 112.599 253.546 122.48C274.013 132.361 289.716 146.123 300.655 163.767C311.947 181.411 317.594 202.055 317.594 225.698C317.594 249.341 311.947 270.161 300.655 288.158C289.363 306.155 273.483 320.27 253.016 330.504C232.902 340.384 208.906 345.325 181.028 345.325H81.5157L81.5164 499.417H0.000730108ZM81.5157 170.119V282.865H176.794C195.496 282.865 209.965 277.748 220.198 267.514C230.785 256.928 236.078 243.165 236.078 226.227C236.078 209.289 230.785 195.703 220.198 185.469C209.965 175.236 195.496 170.119 176.794 170.119H81.5157Z" fill="black"/>
<path d="M512.316 499.358C484.086 499.358 457.972 494.594 433.976 485.066C410.333 475.538 389.69 462.129 372.046 444.837C354.755 427.193 341.169 406.373 331.288 382.377C321.76 358.028 316.996 331.209 316.996 301.92C316.996 263.103 325.289 229.227 341.874 200.29C358.46 171.001 381.397 148.24 410.686 132.008C440.328 115.775 474.029 107.659 511.787 107.659C550.251 107.659 584.128 115.775 613.417 132.008C642.706 148.24 665.643 171.001 682.229 200.29C699.167 229.579 707.636 263.633 707.636 302.45C707.636 331.386 702.696 358.028 692.815 382.377C683.287 406.373 669.701 427.193 652.057 444.837C634.766 462.129 614.123 475.538 590.127 485.066C566.484 494.594 540.547 499.358 512.316 499.358ZM511.787 434.78C534.018 434.78 553.603 429.134 570.542 417.842C587.48 406.55 600.713 391.023 610.241 371.262C620.122 351.147 625.062 327.857 625.062 301.391C625.062 275.278 620.298 252.517 610.77 233.108C601.242 213.7 588.009 198.702 571.071 188.116C554.133 177.529 534.371 172.236 511.787 172.236C489.555 172.236 469.97 177.529 453.032 188.116C436.094 198.702 422.861 213.7 413.333 233.108C404.158 252.164 399.57 274.925 399.57 301.391C399.57 328.21 404.334 351.677 413.862 371.791C423.39 391.552 436.623 407.079 453.561 418.371C470.5 429.311 489.908 434.78 511.787 434.78Z" fill="black"/>
<path d="M719.598 499.238V107.479H801.838V499.238H719.598Z" fill="black"/>
</svg>
