<svg xmlns="http://www.w3.org/2000/svg" viewBox="0 0 100 100">
  <rect width="100" height="100" rx="20" fill="#CC0420"/>
  <svg x="12" y="18" width="76" height="64" viewBox="0 0 630 451">
    <path fill="#EBD1FF" fill-rule="evenodd" clip-rule="evenodd" d="M314.632 387.054C304.96 374.595 296.967 360.699 290.653 345.363C285.087 331.141 281.325 315.983 279.364 299.892H76.6082C78.6839 312.731 82.2626 324.513 87.3429 335.238C95.9334 353.056 107.866 367.057 123.139 377.239C138.412 387.102 155.912 392.034 175.64 392.034C195.686 392.034 213.345 386.944 228.618 376.761C243.076 367.123 254.541 354.062 263.011 337.58C263.897 340.204 264.842 342.799 265.845 345.363C274.655 366.758 286.731 385.354 302.074 401.148C286.492 416.718 267.893 428.794 246.278 437.376C224.959 445.967 201.572 450.263 176.117 450.263C150.662 450.263 127.116 445.967 105.479 437.376C84.1605 428.785 65.547 416.694 49.6372 401.103C34.046 385.194 21.7959 366.42 12.8868 344.784C4.29558 322.829 0 298.646 0 272.237C0 237.236 7.47728 206.69 22.4325 180.599C37.3871 154.189 58.0691 133.666 84.4792 119.03C111.207 104.393 141.594 97.0743 175.64 97.0743C210.322 97.0743 240.868 104.393 267.278 119.03C286.088 129.454 301.993 142.866 314.992 159.263C327.906 143.129 343.657 129.91 362.245 119.609C388.973 104.972 419.36 97.6536 453.406 97.6536C488.088 97.6536 518.634 104.972 545.044 119.609C571.454 134.245 592.136 154.768 607.091 181.178C622.363 207.588 630 238.293 630 273.293C630 299.385 625.545 323.408 616.636 345.363C608.045 367 595.795 385.773 579.885 401.682C564.294 417.273 545.68 429.364 524.044 437.955C502.725 446.547 479.338 450.842 453.883 450.842C428.428 450.842 404.882 446.547 383.245 437.955C361.927 429.364 343.313 417.273 327.403 401.682C322.863 397.049 318.605 392.173 314.632 387.054ZM274.663 239.22H77.4087C79.4759 228.667 82.628 218.991 86.8656 210.19C95.4561 192.69 107.388 179.167 122.661 169.621C137.935 160.076 155.594 155.303 175.64 155.303C196.004 155.303 213.822 160.076 229.095 169.621C244.368 179.167 256.301 192.69 264.892 210.19C269.258 219.086 272.516 228.763 274.663 239.22ZM352.23 274.117C352.436 297.56 356.729 318.127 365.109 335.817C373.699 353.636 385.632 367.636 400.905 377.818C416.178 387.682 433.678 392.614 453.406 392.614C473.452 392.614 491.111 387.523 506.384 377.341C521.657 367.159 533.589 353.158 542.18 335.34C551.09 317.203 555.544 296.203 555.544 272.339C555.544 248.793 551.249 228.27 542.658 210.769C534.067 193.269 522.134 179.746 506.861 170.201C491.588 160.655 473.77 155.882 453.406 155.882C433.36 155.882 415.701 160.655 400.427 170.201C385.154 179.746 373.222 193.269 364.632 210.769C356.526 227.602 352.392 247.642 352.227 270.887L352.222 272.339L352.223 273.044C352.225 273.403 352.226 273.76 352.23 274.117Z"/>
    <path fill="#EBD1FF" d="M365.377 51.5465V0H540.539V51.5465H365.377Z"/>
  </svg>
</svg>
